<svg xmlns="http://www.w3.org/2000/svg" width="27" height="27.036" viewBox="0 0 27 27.036">
  <g id="call" transform="translate(-108.5 -188.5)">
    <g id="Vector" transform="translate(110 190)" fill="none">
      <path d="M24,19.625a3.059,3.059,0,0,1-.3,1.31,4.959,4.959,0,0,1-.817,1.226,5.418,5.418,0,0,1-1.971,1.418,6.035,6.035,0,0,1-2.344.457,10.015,10.015,0,0,1-3.918-.877,21.109,21.109,0,0,1-4.134-2.38,34.552,34.552,0,0,1-3.942-3.365,34.148,34.148,0,0,1-3.353-3.93,21.426,21.426,0,0,1-2.356-4.1A10.122,10.122,0,0,1,0,5.456,6.217,6.217,0,0,1,.433,3.137,5.532,5.532,0,0,1,1.815,1.13,3.521,3.521,0,0,1,4.314,0a2.258,2.258,0,0,1,.973.216,1.959,1.959,0,0,1,.805.673l2.788,3.93a4.113,4.113,0,0,1,.481.841,1.9,1.9,0,0,1,.168.733,1.631,1.631,0,0,1-.252.853A4.088,4.088,0,0,1,8.6,8.1l-.913.949A.643.643,0,0,0,7.5,9.53a1.091,1.091,0,0,0,.036.276c.036.1.072.168.1.24a9.973,9.973,0,0,0,1.118,1.538c.541.625,1.118,1.262,1.743,1.9.649.637,1.274,1.226,1.911,1.767a9.224,9.224,0,0,0,1.55,1.106c.06.024.132.06.216.1a.83.83,0,0,0,.3.048.661.661,0,0,0,.493-.2l.913-.9a3.687,3.687,0,0,1,.865-.673,1.6,1.6,0,0,1,.853-.252,1.918,1.918,0,0,1,.733.156,4.648,4.648,0,0,1,.841.469l3.978,2.824a1.823,1.823,0,0,1,.661.769A2.466,2.466,0,0,1,24,19.625Z" stroke="none"/>
      <path d="M 18.56784820556641 24.03605651855469 C 19.40911865234375 24.03605651855469 20.19027900695801 23.87981605529785 20.91136932373047 23.57936668395996 C 21.64446830749512 23.27891540527344 22.2934398651123 22.81021690368652 22.8823184967041 22.16124725341797 C 23.23084831237793 21.77666664123535 23.4952392578125 21.36805725097656 23.69954872131348 20.93540573120117 C 23.90384864807129 20.50275611877441 24 20.05808639526367 24 19.62543678283691 C 24 19.28892707824707 23.92788887023926 18.98847579956055 23.80770874023438 18.68802642822266 C 23.67550849914551 18.38757705688477 23.45918846130371 18.13520622253418 23.14671897888184 17.91887664794922 L 19.16874885559082 15.09464645385742 C 18.86829948425293 14.89033603668213 18.59188842773438 14.73409652709961 18.32748985290527 14.62593650817871 C 18.06308937072754 14.51777648925781 17.82272911071777 14.46970653533936 17.59438896179199 14.46970653533936 C 17.2939395904541 14.46970653533936 17.01752853393555 14.55382633209229 16.74110984802246 14.72208595275879 C 16.46469879150391 14.86629676818848 16.17625999450684 15.09464645385742 15.87580871582031 15.39509677886963 L 14.96243858337402 16.29644584655762 C 14.83024883270264 16.42864608764648 14.67400932312012 16.50074577331543 14.46969890594482 16.50074577331543 C 14.36153888702393 16.50074577331543 14.26539897918701 16.48873710632324 14.16924858093262 16.45267677307129 C 14.08512878417969 16.4166259765625 14.01301860809326 16.38056564331055 13.95292949676514 16.35653686523438 C 13.54431915283203 16.14020729064941 13.02753925323486 15.77966594696045 12.4025993347168 15.25087642669678 C 11.76564884185791 14.71006679534912 11.14070892333984 14.12117671966553 10.49173927307129 13.48422622680664 C 9.866799354553223 12.84726619720459 9.289929389953613 12.21031665802002 8.749118804931641 11.58537673950195 C 8.220329284667969 10.96043682098389 7.847769260406494 10.44366645812988 7.631449222564697 10.0470666885376 C 7.607409000396729 9.974956512451172 7.571359157562256 9.902856826782227 7.535298824310303 9.806706428527832 C 7.511269092559814 9.710566520690918 7.49924898147583 9.626436233520508 7.49924898147583 9.530296325683594 C 7.49924898147583 9.338006019592285 7.559339046478271 9.18177604675293 7.69153881072998 9.049576759338379 L 8.60490894317627 8.100146293640137 C 8.893339157104492 7.811716556549072 9.121679306030273 7.52328634262085 9.277918815612793 7.246866226196289 C 9.446168899536133 6.970456123352051 9.530299186706543 6.682026386260986 9.530299186706543 6.393586158752441 C 9.530299186706543 6.165246486663818 9.470209121704102 5.912866115570068 9.362038612365723 5.660486221313477 C 9.253878593444824 5.396096229553223 9.097648620605469 5.11967658996582 8.881319046020508 4.819226264953613 L 6.093139171600342 0.8893363475799561 C 5.876819133758545 0.5768663287162781 5.600399017333984 0.3605363667011261 5.287929058074951 0.2163263559341431 C 4.987479209899902 0.07210635393857956 4.650979042053223 -3.648071242423612e-06 4.314468860626221 -3.648071242423612e-06 C 3.4251389503479 -3.648071242423612e-06 2.583878993988037 0.3725563585758209 1.814719080924988 1.129696369171143 C 1.177769064903259 1.730596303939819 0.7210790514945984 2.403606414794922 0.4326490461826324 3.136706352233887 C 0.1442190408706665 3.857786417007446 -9.5367431640625e-07 4.638956546783447 -9.5367431640625e-07 5.456186294555664 C -9.5367431640625e-07 6.706056118011475 0.2884290516376495 8.016026496887207 0.8652990460395813 9.386075973510742 C 1.442169070243835 10.74411678314209 2.23534893989563 12.11416625976562 3.220829010009766 13.48422622680664 C 4.218328952789307 14.85428619384766 5.335999011993408 16.16424560546875 6.573859214782715 17.41411590576172 C 7.823739051818848 18.65197563171387 9.133699417114258 19.76965713500977 10.51576900482178 20.77916717529297 C 11.88582897186279 21.77666664123535 13.26789951324463 22.56985664367676 14.64996910095215 23.15873718261719 C 16.03204917907715 23.74761581420898 17.34200859069824 24.03605651855469 18.56784820556641 24.03605651855469 M 18.56784820556641 25.53605651855469 C 17.1312084197998 25.53605651855469 15.61521911621094 25.20049667358398 14.06198883056641 24.5386962890625 C 12.57260894775391 23.90408706665039 11.08244895935059 23.04719543457031 9.632879257202148 21.99180603027344 C 8.194998741149902 20.94153594970703 6.811298847198486 19.76041603088379 5.518339157104492 18.47988700866699 L 5.508089065551758 18.46964645385742 C 4.222959041595459 17.17204666137695 3.045418977737427 15.79175662994385 2.008188962936401 14.36711597442627 L 2.003118991851807 14.36011600494385 C 0.9421790242195129 12.88514614105225 0.0948590487241745 11.40894603729248 -0.5153109431266785 9.972536087036133 C -1.169320940971375 8.419276237487793 -1.500000953674316 6.90122652053833 -1.500000953674316 5.456186294555664 C -1.500000953674316 4.444301128387451 -1.318783521652222 3.477616310119629 -0.9613381028175354 2.582798004150391 C -0.5896997451782227 1.640286684036255 -0.005902489181607962 0.7880317568778992 0.7740328907966614 0.04934173077344894 C 1.808826446533203 -0.9643151760101318 3.032748937606812 -1.500003695487976 4.314468860626221 -1.500003695487976 C 4.875968933105469 -1.500003695487976 5.433314800262451 -1.375794887542725 5.926984310150146 -1.140759944915771 C 6.496897220611572 -0.8756040930747986 6.965852737426758 -0.4824873805046082 7.321135997772217 0.02789787016808987 L 10.10166263580322 3.947001218795776 C 10.38006591796875 4.334225654602051 10.590895652771 4.705527305603027 10.74584102630615 5.081534862518311 C 10.93459606170654 5.525778770446777 11.03029918670654 5.967160224914551 11.03029918670654 6.393586158752441 C 11.03029918670654 6.947810649871826 10.87197208404541 7.504541397094727 10.57217979431152 8.005315780639648 C 10.35291290283203 8.388158798217773 10.05164241790771 8.773134231567383 9.676361083984375 9.149991035461426 L 9.167242050170898 9.679210662841797 C 9.317717552185059 9.899208068847656 9.546158790588379 10.20476150512695 9.888684272766113 10.60994529724121 C 10.46814155578613 11.27932739257812 11.01256465911865 11.87278079986572 11.55244159698486 12.42351150512695 C 12.27413463592529 13.13155269622803 12.83610057830811 13.65119457244873 13.37344932556152 14.10743618011475 C 13.77272891998291 14.44528961181641 14.08281803131104 14.67355060577393 14.3157844543457 14.82718658447266 L 14.81857395172119 14.33101367950439 C 15.22354888916016 13.92652893066406 15.61167812347412 13.62656688690186 16.00357627868652 13.41538143157959 C 16.50492095947266 13.1196117401123 17.03985977172852 12.96970653533936 17.59438896179199 12.96970653533936 C 18.02313995361328 12.96970653533936 18.46086883544922 13.05984592437744 18.89541816711426 13.23760604858398 C 19.25004959106445 13.38267612457275 19.61535835266113 13.58438682556152 20.01222991943359 13.85426616668701 L 20.037109375 13.87155628204346 L 24.00852203369141 16.69112968444824 C 24.54347038269043 17.06341171264648 24.93782615661621 17.53196907043457 25.18067932128906 18.08390617370605 L 25.20042991638184 18.13093566894531 C 25.40200996398926 18.63489723205566 25.5 19.12375640869141 25.5 19.62543678283691 C 25.5 20.29565620422363 25.35058975219727 20.9518871307373 25.05592918395996 21.57589721679688 C 24.7768383026123 22.16690635681152 24.42941856384277 22.68785667419434 23.99378967285156 23.16853713989258 C 23.25798416137695 23.97942733764648 22.41411018371582 24.5837230682373 21.4848461151123 24.96541976928711 C 20.57477951049805 25.34405326843262 19.59334373474121 25.53605651855469 18.56784820556641 25.53605651855469 Z" stroke="none" fill="#221e2e"/>
    </g>
  </g>
</svg>
