<svg xmlns="http://www.w3.org/2000/svg" width="27" height="27.08" viewBox="0 0 27 27.08">
  <g id="Group_164" data-name="Group 164" transform="translate(-109.5 -254.828)">
    <g id="Vector" transform="translate(111 256.424)" fill="none" stroke-linecap="round" stroke-linejoin="round">
      <path d="M6.667.011C2.227.251,0,1.9,0,7.984v8c0,5.333,1.333,8,8,8h8c6.667,0,8-2.667,8-8v-8C24,1.891,21.773.251,17.333.011S6.667.011,6.667.011Z" stroke="none"/>
      <path d="M 12.59457778930664 -0.09600067138671875 C 9.433961868286133 -0.09600639343261719 6.66667366027832 0.0106658935546875 6.66667366027832 0.0106658935546875 C 2.226663589477539 0.2506656646728516 3.814697265625e-06 1.903997421264648 3.814697265625e-06 7.984006881713867 L 3.814697265625e-06 15.98400688171387 C 3.814697265625e-06 21.31733703613281 1.333333969116211 23.98400688171387 8.000003814697266 23.98400688171387 L 16.00000381469727 23.98400688171387 C 22.66667366027832 23.98400688171387 24.00000381469727 21.31733703613281 24.00000381469727 15.98400688171387 L 24.00000381469727 7.984006881713867 C 24.00000381469727 1.890666961669922 21.77334403991699 0.2506656646728516 17.33334350585938 0.0106658935546875 C 15.85343456268311 -0.06932830810546875 14.1747407913208 -0.09599685668945312 12.59457778930664 -0.09600067138671875 M 12.59457397460938 -1.596002578735352 L 12.59458351135254 -1.596002578735352 C 14.45672416687012 -1.595993041992188 16.07831382751465 -1.559364318847656 17.41431427001953 -1.487142562866211 C 19.33432388305664 -1.383363723754883 21.75355339050293 -1.031454086303711 23.43276405334473 0.7837066650390625 C 24.84312438964844 2.308256149291992 25.50000381469727 4.596197128295898 25.50000381469727 7.984006881713867 L 25.50000381469727 15.98400688171387 C 25.50000381469727 18.38195610046387 25.27769470214844 21.08738708496094 23.62887382507324 22.97176742553711 C 22.12915420532227 24.68572616577148 19.70503425598145 25.48400688171387 16.00000381469727 25.48400688171387 L 8.000003814697266 25.48400688171387 C 4.294973373413086 25.48400688171387 1.870853424072266 24.68572616577148 0.3711338043212891 22.97176742553711 C -1.277687072753906 21.08738708496094 -1.499996185302734 18.38195610046387 -1.499996185302734 15.98400688171387 L -1.499996185302734 7.984006881713867 C -1.499996185302734 4.601716995239258 -0.8433361053466797 2.315607070922852 0.5665435791015625 0.7894668579101562 C 2.24824333190918 -1.030902862548828 4.666664123535156 -1.383413314819336 6.585714340209961 -1.487142562866211 C 6.593433380126953 -1.487564086914062 6.601163864135742 -1.487922668457031 6.608894348144531 -1.488224029541016 C 6.63685417175293 -1.489294052124023 9.441534042358398 -1.596002578735352 12.59457397460938 -1.596002578735352 Z" stroke="none" fill="#221e2e"/>
    </g>
    <g id="Group_165" data-name="Group 165" transform="translate(-570.429 6.804)">
      <path id="Vector-2" data-name="Vector" d="M1.459,0,0,13.128" transform="translate(690.511 255)" fill="none" stroke="#221e2e" stroke-linecap="round" stroke-linejoin="round" stroke-width="1"/>
      <path id="Vector-3" data-name="Vector" d="M1.459,0,0,13.128" transform="translate(694.887 255)" fill="none" stroke="#221e2e" stroke-linecap="round" stroke-linejoin="round" stroke-width="1"/>
      <path id="Vector-4" data-name="Vector" d="M0,0H13.128" transform="translate(687.229 259.376)" fill="none" stroke="#221e2e" stroke-linecap="round" stroke-linejoin="round" stroke-width="1"/>
      <path id="Vector-5" data-name="Vector" d="M0,0H13.128" transform="translate(686.5 263.752)" fill="none" stroke="#221e2e" stroke-linecap="round" stroke-linejoin="round" stroke-width="1"/>
    </g>
  </g>
</svg>
