<svg id="unisex-symbol-color-icon" xmlns="http://www.w3.org/2000/svg" width="24.477" height="24" viewBox="0 0 24.477 24">
  <path id="Path_40134" data-name="Path 40134" d="M159.348,4.489a6.3,6.3,0,0,1,3.835,1.294l3.961-3.961h-1.468a.911.911,0,1,1,0-1.821h3.595a.911.911,0,0,1,.911.911V4.617a.911.911,0,1,1-1.821,0V3.23l-3.882,3.882a6.33,6.33,0,0,1-8.092,9.3A7.074,7.074,0,0,0,157.77,15a4.469,4.469,0,1,0-2.526-2.406,3.757,3.757,0,0,1-1.383,1.376,6.33,6.33,0,0,1,5.487-9.484Z" transform="translate(-145.705)" fill="#221e2e"/>
  <path id="Path_40135" data-name="Path 40135" d="M6.343,92.55a6.317,6.317,0,0,1,2.974.739,7.1,7.1,0,0,0-.708.62,7.028,7.028,0,0,0-.681.79,4.48,4.48,0,1,0,2.525,2.4,3.727,3.727,0,0,1,.588-.764,3.684,3.684,0,0,1,.8-.608,6.345,6.345,0,0,1-4.588,9.441v1.585H9.892a.911.911,0,0,1,0,1.821H7.254v2.638a.911.911,0,1,1-1.821,0v-2.638H2.794a.911.911,0,1,1,0-1.821H5.432v-1.585A6.343,6.343,0,0,1,6.343,92.55Z" transform="translate(0 -88.126)" fill="#221e2e"/>
</svg>
